<?xml version="1.0" encoding="UTF-8"?>
<svg id="logo" xmlns="http://www.w3.org/2000/svg" width="188" height="58.69" viewBox="0 0 188 58.69">
<path id="globe" d="M.78,22.57c-.52,2.19-.78,4.45-.78,6.78,0,16.18,13.16,29.35,29.35,29.35,9.64,0,18.21-4.68,23.57-11.88-1.26.28-.84-3.06-.64-3.63.2.14.34.41.48,0-.34-.07-.27-.2-.14-.48.23.14.91.39.91-.14-.55,0,.09-.91.09-.34.5,0,.18-.6.39-.8,0,.23.12.94.28,1,.37.34-.28.46-.28.71-.18.09-.14.43-.14.53h-.25c-.02.48-.23,1-.23,1.39-.23,0-.14.85-.18,1.37,3.45-4.82,5.5-10.71,5.5-17.07,0-.82-.05-1.64-.11-2.45-.41.04-.92-.09-1.1-.16-.96,0-1.76-.91-2.72-.62.02-.04,0-.05-.05-.04.09-.23-.71-1.64-1.05-1.01-.09.16.27.76.43.87,0,.12.09.41.2.52.28.27-.07.36,0,.53.36,0,.3-.07.37-.57.05.02.04.04.11.04-.05.2-.02.37.09.53.36.53-.09.04.05.43.48,0,.96-.27,1.19-.85.18.12-.04.34.14.43.16.18.32.27.21.5-.07.14.41.43.32-.12.52.16.43.8.04,1.05,0,.25-.23.28-.23.6,0,.21-.16.59-.34.64,0,.12-1.42.75-1.33,1.01-.25,0-1.14.25-1.3.57-.18,0-.89.25-.94.39-.89,0-.73-1.07-1.16-1.07.04-.16-.09-.25-.2-.43.28,0-.85-2.1-.85-2.44-.18-.09-.39-.69-.43-.91-.25-.16-.48-.66-.59-.96-.23-.16-.8-.85-.91-1.19.36.04.87.11.87-.34-.23,0-.27-.28-.05-.28-.07-.28.16-.5.2-.73.07-.28.18-.71.18-1.03-.32,0-.39.05-.66.14,0,.2-.59-.05-.68-.05-.12-.25-1.03.32-1.28-.2-.41-.37-.3-.66-.44-1.19-.05-.27-.43-.27-.64-.32-.62-.12-.18.75-.21.94.39,0-.23.48-.23.71-.66-.12-.44-.85-.82-1.05-.11-.18-.02-.34-.28-.34,0-.25.14-.71-.14-.8,0-.12-.55-.18-.62-.34-.34,0-1.14-1.3-1.39-.85-.16.27.12.34.2.57.48-.11.44.82,1.05.71,0,.12.02.27.04.39.46-.11.41.32.62.32-.16.23-.68-.34-.53.14.09.27.04.5-.32.76,0-.28-.02-1.08-.34-1.08-.21-.43-.84-.32-1.1-.73-.21,0-.3-.66-.66-.71-.07.11-.34.2-.43.2-.21.41-1.35.04-1.35.09-.02,0-.62,1.53-.66,1.73-.07.43-.43.43-.53.84-.04.21-1.3.11-1.3.27-.53-.18-1-.57-1-1.16-.05,0,.11-1.49.2-1.73.11.04.12.07.2.2.32-.12,1.08.09,1.08-.28.32.02.43.14.3.39.28.05.8.12.8-.3-.18,0-.2,0-.2-.18.59-.6-.43-1.14-.43-1.44-.2-.07-.6-.52-.32-.34.25.14,1.16.43.8-.2.02,0,.04-.02.05-.04.09.07.52.52.52.09.12,0,.59-.28.2-.28.04-.21.04-.39.05-.53.6.34.27-.21.57-.43,0,.41.34-.18.53-.18.23-.36.76-.09.91-.48-.3-.11-.25-.84-.25-1.1.36.05.75-.48.8-.11.02.14.04.53.11.59.53.27.39-.16.39-.43-.18,0-.41-.62-.43-.92-.14.04-.37.09-.44.2-.52,0-.87-.2-1.28-.2-.04-.05-.53-.62-.48-.62-.28-.5.28-.36.39-.37,0-.48,1.96-.39,2.05-1.16-.64,0,.68-1.1.68-1.08.43-.37.66-.71,1.21-.75.23-.02,2.81-.73,2.81-.41.25.02,1.85,0,1.85.2.27,0,.84.28,1.01.18.32-.16,1.62.39,1.62.82-.6,0-1.44.14-2.24.14,0,.18.09.02,0,.2.27,0,.76.71.71.96.39,0,.55-.28.82-.28,0,.32.37.37.48,0-.3,0-.16-.43-.11-.43.21-.37.64.02.8-.46C46.38,4.07,38.35,0,29.35,0c-7.72,0-14.76,3.01-20.01,7.91.05.09.53-.23.6-.25,0,.3-.07.32.05.66.05,0,.34.48.34.68.25-.02.62-.18.71.14-.12,0-.27-.02-.39-.05.11.75-.32.3-.66.3,0-.05-1.05-.48-.62.23.11,0,.05.18.37.28.36.12.76.2,1.16.25.32.05.5-.05.76-.05,0-.04.66-.34.2-.34.05-.27-.05-.32-.34-.34.02-.27.68-.09.96-.09.2-.36,0-.3.18-.62.23-.39.48-.05.62-.43.21.09.41.2.48.48.18.14,1.05,1.44,1.05.52.32.11.48.69.48,1.01.57-.09.62-.52.62-.96.14,0-.05-.21-.05-.28.21-.09.48.2.48-.11.11,0,.11.11.11.2.28.05.48-.04.66.04.12.04.07.69.02.92-.07.28-.64.3-.64.43-.62.48.75.71.96,1.01-.12,0-.62-.07-.62-.11-.3,0-1.07.34-1.33.11.39,0,.52-.48.57-.91-.36-.14-.76.07-.87.43-.16.59-.55-.02-.75.37-.07.04-.76.36-.76.25-.78.11-.57.76-.57,1.48.3.18.92.71.91,1,.69.12.94.2,1.57.3.05.09.27.2.39.23,0,.41.37.34.71.34,0-.53.6.43.68.62-.09,0,.14.53.18.71-.09-.04-.12,0-.09.11.3.11.78.07.87-.25-.3,0-.2-.34-.2-.53-.3-.2-.25-.57.04-.66,0,.27,1-.18.44-.39.12-.3.21-.76,0-1.03-.14-.18-.32,0-.39-.25.37-.11.11-.82.11-1.16.11-.04.43.09.43,0,.36,0,.98.48,1.19-.09.6.28.12.55.76.34,0,.14.71.85.82.85,0,.04-.02.23.14.23,0,.16-.11-.09-.11.2.09.02.59.11.59-.09.3,0,.52-.39.52-.68.2-.12.53,1.05.76,1.05.18.27.73.66.73.91.11.12.23.09.23.44.14,0,.43-.59.43-.05.14,0,.53.28.57.52-.34,0-.02.34-.18.34,0,.34-.75.07-.91.05-.23,1.03-1.62.28-2.45.55-.43.14-1.28,1.12-1.33,1.6.53,0,.76-.46,1.24-.62.39,0,.46-.23.82-.34,0,.11.09.05.09.14-.68,0-.27.44-.07.76.2.3.41.43.69.43-.07.23-.43.05-.43.3-.12.04-.39.12-.43.23-.78.09-.39.04-.34-.16.02.07.3.02.28.02-.05-.23-.11-.2-.05-.34-.41,0-.62.2-.94.2-.07.11-.36.37-.48.37-.11.3-.32.84-.59,1.01,0-.07-.68.43-.62.43-.14.25-.3.23-.37.62-.05.02-.23.66-.23.76-.3.2-.41,1-.92,1-.3.62-.85.53-.85,1.35.2.2.27,1.03.32,1.32.07.34.18.68-.27.69-.04-.05-.36-.53-.28-.53,0-.2-.25-.84-.39-1.03-.18-.27-.53.05-.82-.07-.11-.23-.91-.28-1.19-.28.05.18.18.23.2.43-.23.11-.37.21-.6.18-.43-.05-.37-.39-.84-.34-.73.07-1.24.68-1.24,1.41-.07,0-.07,1.44,0,1.44,0,.41.34.69.34,1,.34,0,.69.73,1.01.73.04.25-.16.28.37.28,0-.04.3-.2.34-.39-.37-.09,0-.57.23-.66,0,.34.48-.12.48-.16l.53-.18c0-.39.36.04.09.18-.25,0-.23.44-.37.44-.07.3-.18.57-.27.87-.09.37.21.41.12.75.37.07.76,0,1.14,0,0-.07,0-.12-.04-.2.55,0,.04,1.05.37,1.05,0,.41.2.71.2.96.25.18.41.41.34.73.3.04,1,.12,1-.3.48,0,.52.34.48.68.96,0,.36-.96.76-.96.04-.16.11-.18.2-.07.2.11.34-.2.5-.3.05-.04.23-.12.27-.12.12.07.14.05.2.14.27,0,.53-.14.76-.3.34.04.23.78.87.82.27.02.85.09,1.08-.05.05-.04.25.12.28.2.21,0,.2.2.28.18.02.05.05.07.09.05.04.09.21.11.3.34,0,.2.43.23.43.37.3.16-.11.2.36.34.27.09.5.21.78.23.09-.34.39.05.53.05.07.16.11.04.18.2.44.37.16.23.34.62.21.14.28.62.34.91-.16,0-.05.66-.05.71-.2,0,.53.39.53-.09.3.05.5.37.71.37-.12.28.34.52.34.05.46.05.34.73.28.96.37,0,.43-.27.82-.25.21,0,.44.16.53-.09.53.18.75.36,1.12.68.6.55.71,1.96.07,2.44,0,.09-.69.85-.71.85,0,.09-.04,1.05-.05,1.05,0,.2-.16,1.24-.28,1.24,0,.55-.36.64-.48,1.16-.28.21-1.08.57-1.19.8-.23,0-.41.2-.62.2-.04.07-.53.53-.44.53-.04.34.04,1.14-.16,1.35-.11.16-.28.14-.21.37-.27,0,.02.18-.41.18-.27,0-.75.39-.76.71-.02.39-.11.68-.46.92,0,.12-.6.16-.6.52.05,0,0,.66,0,.73-.2-.02-.64.18-.73.32-.62,0-.55.07-.96.34,0,.09-.05.39-.14.39,0,.48-.34.04-.62.28.12,0,.25.48.2.48,0,.41-.25.44-.52.76-.12.07-.25.43-.34.43,0,.28-.14.53-.14.82.05,0,0,.11.04.23.14-.04.14-.2.2-.2,0-.23.39.14.14.14-.2.3-.41.3-.52.73-.34,0-.66.85-.34.85,0,.18.07.34.16.46-.78-.21-1.57-.46-2.33-.75-.04-.84-.02-3.2.3-3.2,0-.14.12-.76.23-.76,0-.39.05-.84,0-1.3-.14-.28.2-.64.3-1.1.55-.27.16-3.06.57-3.06,0-1.39.3-2.19.09-3.49.11,0-.62-.78-.62-.76-.69,0-1.19-1.12-1.19-1.62-.07-.23-.23-.55-.23-.82.16,0-1.01-1.71-1.01-1.67-.6-.34.04-.82.11-1.39-.53-.18,0-1.62.23-1.62.02-.2.12-.32.28-.39.12.48.68-.23.25-.23,0-.32-.04-1,0-1.16,0-.48-.44-1.44-.76-.43-.37-.18-1.26-.14-1.35-.71.05-.28-.52-.87-.71-.96.2-.5-.98-1.16-1.39-1.16,0-.11-.21-.05-.28-.18-.43,0-.53-.59-1.01-.59-.55,0-1.1-.37-1.62-.37-.18-.34-.96-.21-1.14-.57-.43,0-.59-.8-.6-1.08,0-.36-.28-1.6-.78-1.6,0-.3-.69-.82-.87-.82,0-.05-.27-.66-.37-.66,0-.21-.73-1.14-.85-.73-.07.25.57.6.57.91.11,0,.6.94.69,1.1,1.08,1.83-.8.59-.8-.2-.23-.11-.62-1.03-.62-1.28-.14-.11-.55-1-.52-1,0-.59-.32-.87-.96-.87-.04-.05-.57-.82-.57-.82,0-.23-.44-.98-.68-1.08,0-.5-.25-1.12-.14-1.64,0-.91-.02-2.06-.87-2.74-.85,1.81-1.55,3.75-2.03,5.74ZM50.51,34.75c.07.02.53,0,.53-.09.41,0,.98-.05,1.39-.2,0,.62-.53.98-.44,1.58-.34,0-.18.36-.18.48-.23.14-.27.39-.53.53,0,.27-.62.73-.8.96-.21.27-.84.73-.91,1.07.02-.07-1.14,1.21-.87,1.21,0,.25-.32,2.15.09,2.15,0,.18.37,1.78.14,1.78,0,.52-.32.82-.32,1.24-.18.11-.41.16-.48.32-.3,0-.44.62-.59.62,0,.68-.18,1.17-.18,1.92.05,0-.39,1.07-.39,1.14-.36.25-1.24,1.1-1.24,1.53l-.71,1.01c-.2,0-1.64.27-1.64.37-.3,0-1.08.25-1.28-.04,0-.3-.16-.69-.2-1.1-.14,0-.16-.62-.34-.62,0-.12-.91-1.96-.76-1.96,0-.2-.16-.82-.18-.82,0-.66-.48-1.21-.48-1.81-.14,0-.44-1.33-.28-1.33,0-.71.23-1.17.34-1.94.11-.85-.05-1.39-.2-1.99-.09,0-.36-.46-.39-.57-.37-.25-.52-.76-.52-1.24.25-.28.34-1.37.28-1.73-.48-.23-.68-.14-1.21-.14-.3-.62-2.37-.23-2.95-.23,0,.34-1.44-.07-1.58-.34-.36,0-1.05-.75-1.05-1.1-.39-.25-1-1.53-1-1.96-.34-.16-.23-.82-.05-.82.04-.18-.12-.75-.2-1.01-.05-.2.2-.41.2-.66,0-.66.02-.98.39-1.69.11-.21.27-.43.37-.71.2-.5.25-.02.52-.46.27-.12.41-.55.68-.76.12-.16.12-.21,0-.34.05,0,.34-.73.34-.91.37-.52.11-.28.48-.23.12-.16.36-.53.57-.53.09-.18.32-.28.53-.28,0,.28.76-.11.85-.11.12-.27,1-.57,1.19-.57,0-.32,1.69.09,1.96.05v-.14c.37.09,1.03,1.55.96,1.87.28,0,.53-.05.73,0,0,.3.57.37.84.39.37.02,1.44-.04,1.44-.53.28,0,.53.2.48.52.34.04,2.24.07,2.12.48.27,0,.34.48.62.48-.07.34.32,1.19.62,1.19,0,.28.18.82.43,1.01.12.41.59,1.26,1,1.53-.18.34.27.6.39.94-.04,0,.09.52.23.59,0,.34.71,1.71,1.1,1.71.02.18-.37.25.14.28Z" fill="#13aad7ff" fill-rule="evenodd" stroke-width="0" stroke="#5a7ccbff"/>

<g id="text">

<path d="M68.83,29.26V10.75h4.8c1.25,0,2.32.14,3.21.42.89.28,1.58.78,2.06,1.5.48.72.72,1.71.72,2.97,0,.76-.06,1.44-.19,2.02-.13.59-.36,1.1-.69,1.53-.33.43-.79.78-1.38,1.04l2.56,9.02h-3.86l-2.12-8.39h-1.33v8.39h-3.77ZM72.6,18.63h1.1c.61,0,1.09-.1,1.44-.3s.6-.5.74-.9c.14-.4.22-.9.22-1.5,0-.85-.16-1.5-.47-1.95-.31-.45-.89-.67-1.75-.67h-1.28v5.32Z" fill="#13aad7ff" stroke-width="1" stroke="#e45c09"/>

<path d="M82.88,29.26V10.75h8.07v2.6h-4.3v4.91h3.31v2.63h-3.31v5.8h4.34v2.56h-8.11Z" fill="#e45c09" stroke-width="0"/>

<path d="M96.32,29.26l-3.52-18.51h3.27l2.19,12.8,2.06-12.8h3.4l-3.52,18.51h-3.88Z" fill="#e45c09" stroke-width="0"/>

<path d="M111.35,29.51c-1.36,0-2.43-.24-3.22-.73-.79-.49-1.36-1.18-1.7-2.09s-.51-1.99-.51-3.26v-6.9c0-1.26.17-2.35.51-3.24.34-.9.91-1.58,1.7-2.06.79-.47,1.87-.71,3.22-.71s2.46.24,3.26.72c.8.48,1.37,1.17,1.71,2.06s.51,1.97.51,3.23v6.9c0,1.26-.17,2.35-.51,3.26s-.91,1.6-1.71,2.09-1.89.73-3.26.73ZM111.35,26.79c.49,0,.85-.11,1.07-.33s.38-.52.46-.89c.08-.37.11-.77.11-1.2v-8.75c0-.43-.04-.82-.11-1.19-.08-.37-.23-.66-.46-.88-.23-.22-.59-.33-1.07-.33-.46,0-.8.11-1.03.33-.23.22-.38.51-.46.88s-.11.76-.11,1.19v8.75c0,.43.03.83.1,1.2.07.37.22.67.45.89s.58.33,1.05.33Z" fill="#e45c09" stroke-width="0"/>

<path d="M120.15,29.26V10.75h3.77v15.95h4.34v2.56h-8.11Z" fill="#e45c09" stroke-width="0"/><path d="M135.75,29.51c-1.4,0-2.49-.24-3.27-.72-.78-.48-1.32-1.17-1.63-2.08-.31-.91-.47-2.01-.47-3.3v-12.66h3.72v13.18c0,.46.03.91.1,1.35.07.44.22.8.46,1.07.24.27.6.41,1.08.41s.87-.14,1.11-.41c.24-.27.38-.63.45-1.07s.09-.89.09-1.35v-13.18h3.72v12.66c0,1.29-.16,2.4-.47,3.3-.31.91-.86,1.6-1.63,2.08-.78.48-1.87.72-3.27.72Z" fill="#e45c09" stroke-width="0"/>

<path d="M146.28,29.26v-15.7h-2.86v-2.81h9.46v2.81h-2.81v15.7h-3.79Z" fill="#e45c09" stroke-width="0"/>

<path d="M155.4,29.26V10.75h3.75v18.51h-3.75Z" fill="#e45c09" stroke-width="0"/>

<path d="M167.94,29.51c-1.36,0-2.43-.24-3.22-.73-.79-.49-1.36-1.18-1.7-2.09s-.51-1.99-.51-3.26v-6.9c0-1.26.17-2.35.51-3.24.34-.9.91-1.58,1.7-2.06.79-.47,1.87-.71,3.22-.71s2.46.24,3.26.72c.8.48,1.37,1.17,1.71,2.06s.51,1.97.51,3.23v6.9c0,1.26-.17,2.35-.51,3.26s-.91,1.6-1.71,2.09-1.89.73-3.26.73ZM167.94,26.79c.49,0,.85-.11,1.07-.33s.38-.52.46-.89c.08-.37.11-.77.11-1.2v-8.75c0-.43-.04-.82-.11-1.19-.08-.37-.23-.66-.46-.88-.23-.22-.59-.33-1.07-.33-.46,0-.8.11-1.03.33-.23.22-.38.51-.46.88s-.11.76-.11,1.19v8.75c0,.43.03.83.1,1.2.07.37.22.67.45.89s.58.33,1.05.33Z" fill="#e45c09" stroke-width="0"/>

<path d="M176.74,29.26V10.75h2.63l4.11,9.64v-9.64h3.11v18.51h-2.51l-4.11-10.24v10.24h-3.22Z" fill="#e45c09" stroke-width="0"/>

<path d="M71.67,52.45v-14.87h-2.81v-1.72h7.85v1.72h-2.72v14.87h-2.31Z" fill="#e45c09" stroke-width="0"/>

<path d="M90.88,52.45v-16.59h3.34c1.11,0,2.02.15,2.75.44.72.29,1.26.77,1.61,1.41.35.65.52,1.5.52,2.55,0,.64-.07,1.23-.2,1.75-.14.53-.36.97-.66,1.33-.3.36-.7.62-1.19.79l2.36,8.32h-2.23l-2.17-7.78h-1.8v7.78h-2.31ZM93.2,43h.88c.66,0,1.19-.08,1.6-.25s.71-.44.9-.84c.19-.4.29-.95.29-1.66,0-.97-.18-1.67-.53-2.1-.35-.43-1.06-.65-2.11-.65h-1.02v5.49Z" fill="#e45c09" stroke-width="0"/>

<path d="M113.19,52.45l3.52-16.59h2.23l3.54,16.59h-2.19l-.76-4.18h-3.38l-.8,4.18h-2.17ZM116.47,46.61h2.77l-1.39-7.48-1.37,7.48Z" fill="#e45c09" stroke-width="0"/>

<path d="M139.06,52.45l-3.71-16.59h2.17l2.62,12.23,2.5-12.23h2.11l-3.67,16.59h-2.03Z" fill="#e45c09" stroke-width="0"/>

<path d="M159.1,52.45v-16.59h6.43v1.72h-4.12v5.49h3.34v1.64h-3.34v6.08h4.16v1.66h-6.47Z" fill="#e45c09" stroke-width="0"/>

<path d="M180.01,52.45v-16.59h2.31v14.93h4.24v1.66h-6.56Z" fill="#e45c09" stroke-width="0"/>
</g> 
</svg>